<svg xmlns="http://www.w3.org/2000/svg" viewBox="0 0 100 100">
  <!-- Python logo: two snakes forming the Python symbol -->
  <!-- Blue snake (top-left) -->
  <path d="M49.5 10C35.5 10 36.5 16 36.5 16L36.5 22.3L50 22.3L50 24L30 24C30 24 20 22.8 20 37C20 51.2 28.8 50.7 28.8 50.7L34.2 50.7L34.2 44.1C34.2 44.1 33.9 35.3 42.8 35.3L57.2 35.3C57.2 35.3 65.5 35.4 65.5 27.3L65.5 18.8C65.5 18.8 66.8 10 49.5 10ZM42 19.5C43.4 19.5 44.5 20.6 44.5 22C44.5 23.4 43.4 24.5 42 24.5C40.6 24.5 39.5 23.4 39.5 22C39.5 20.6 40.6 19.5 42 19.5Z" fill="#3776AB"/>
  <!-- Yellow snake (bottom-right) -->
  <path d="M50.5 90C64.5 90 63.5 84 63.5 84L63.5 77.7L50 77.7L50 76L70 76C70 76 80 77.2 80 63C80 48.8 71.2 49.3 71.2 49.3L65.8 49.3L65.8 55.9C65.8 55.9 66.1 64.7 57.2 64.7L42.8 64.7C42.8 64.7 34.5 64.6 34.5 72.7L34.5 81.2C34.5 81.2 33.2 90 50.5 90ZM58 80.5C56.6 80.5 55.5 79.4 55.5 78C55.5 76.6 56.6 75.5 58 75.5C59.4 75.5 60.5 76.6 60.5 78C60.5 79.4 59.4 80.5 58 80.5Z" fill="#FFD43B"/>
</svg>
